<svg xmlns="http://www.w3.org/2000/svg" viewBox="0 0 432 485">
  <g transform="matrix(1, 0, 0, 0.999501, -26.721001, 0)">
    <path d="M392.551,243.889l-1.459,3.135c-2.668-4.409-6.402-11.096-10.594-18.604c-11.816-21.17-28-50.165-44.76-72.784
			l-0.342-0.44c-16.662-20.617-35.176-30.641-56.593-30.641c-6.991,0-14.317,1.116-21.776,3.316
			c-25.36,7.477-29.273,23.495-29.776,30.02c-0.987,12.584,8.693,36.239,34.59,48.491l0.021,18.76
			c12.866-3.451,28.646-10.37,29.909-20.682c1.046-8.535-3.346-16.737-11.124-20.439c-23.088-10.955-27.318-20.581-26.955-24.072
			c1.625-15.56,34.305-21.107,60.9,11.707c15.688,21.22,31.318,49.225,42.744,69.692c3.697,6.624,6.896,12.356,9.557,16.881
			l-75.902,163.775c-7.473-2.03-14.008-2.938-20.617-2.938c-4.118,0-7.891,0.342-11.563,0.674
			c-4.036,0.363-8.208,0.738-13.563,0.738c-3.559,0-7.268-0.162-11.341-0.497c-24.182-1.979-62.97-20.846-80.709-30.871
			c-8.762-6.45-9.573-10.621-7.959-19.165h-26.796c-1.475,12.638,0.71,27.337,19.808,41.091l0.574,0.414l0.614,0.35
			c5.682,3.235,56.541,31.69,92.301,34.617c4.8,0.395,9.22,0.586,13.508,0.586c6.547,0,11.537-0.449,15.979-0.85
			c3.343-0.304,6.229-0.563,9.147-0.563c4.807,0,10.918,0.61,22.982,5.029l2.594,1.027l-1.359,2.923l65.969,30.673l97.959-210.679
			L392.551,243.889z" style="fill: rgb(201, 155, 255);"></path>
    <path d="M 249.708 319.042 L 249.573 218.719 C 249.573 218.719 228.386 203.637 223.244 197.626 L 223.368 290.063 L 53.171 290.063 L 52.871 66.872 L 223.068 66.872 L 223.152 129.002 C 228.549 124.481 235.817 120.371 245.648 117.472 C 246.915 117.099 248.175 116.761 249.436 116.443 L 249.33 37.891 C 249.302 16.964 232.315 0 211.388 0 L 64.372 0 C 43.445 0 26.504 16.964 26.532 37.891 L 26.91 319.041 C 26.938 339.969 43.925 356.934 64.852 356.934 L 211.869 356.934 C 232.795 356.934 249.736 339.969 249.708 319.042 Z M 102.763 36.476 L 173.095 36.476 L 102.763 36.476 Z" style="fill: rgb(124, 69, 255);"></path>
    <path clip-rule="evenodd" d="M 149.701 323.029 C 144.188 317.861 139.719 312.697 136.498 307.54 C 132.914 313.059 128.418 318.181 123.295 323.029 C 128.845 327.741 133.25 332.898 136.498 338.511 C 139.803 332.494 144.1 327.249 149.701 323.029 Z" fill-rule="evenodd" style="fill: rgb(255, 255, 255);"></path>
    <g transform="matrix(0.718889, 0, 0, 0.718991, 340.035034, 215.227768)" style="">
      <path clip-rule="evenodd" d="M -198.35 -179.88 L -363.42 -179.88 C -370.26 -179.88 -375.81 -174.33 -375.81 -167.49 L -375.81 63.742 C -375.81 70.588 -370.26 76.137 -363.42 76.137 L -198.35 76.137 C -191.5 76.137 -185.95 70.588 -185.95 63.742 L -185.95 -167.49 C -185.95 -174.33 -191.5 -179.88 -198.35 -179.88 Z M -195.95 63.742 C -195.95 65.062 -197.03 66.137 -198.35 66.137 L -363.42 66.137 C -364.74 66.137 -365.81 65.063 -365.81 63.742 L -365.81 -167.49 C -365.81 -168.81 -364.74 -169.88 -363.42 -169.88 L -198.35 -169.88 C -197.03 -169.88 -195.95 -168.81 -195.95 -167.49 L -195.95 63.742 L -195.95 63.742 Z" fill-rule="evenodd" style="stroke-width: 1; fill: rgb(201, 155, 255);"></path>
      <path clip-rule="evenodd" d="M -277.66 -103.22 C -278.31 -104.22 -278.95 -105.21 -279.57 -106.21 C -279.62 -106.29 -279.67 -106.37 -279.72 -106.45 C -280.36 -107.48 -280.99 -108.52 -281.58 -109.55 C -291.5 -91.54 -305.86 -77.786 -320.37 -63.102 C -321.1 -62.366 -321.78 -61.638 -322.42 -60.912 C -326.91 -55.829 -329.27 -50.829 -329.27 -43.519 C -329.27 -30.821 -318.46 -20.47 -305.21 -20.47 C -304.55 -20.47 -303.91 -20.502 -303.26 -20.552 C -303.22 -20.556 -303.18 -20.561 -303.14 -20.565 C -294.97 -21.236 -287.96 -25.816 -284.15 -32.34 C -283.91 -24.277 -287.63 -12.569 -294.09 1.737 L -268.41 1.737 C -274.74 -11.539 -279.61 -23.837 -279.15 -32.441 C -275.04 -25.306 -267.11 -20.47 -258.04 -20.47 C -244.78 -20.47 -233.95 -30.821 -233.95 -43.519 C -233.95 -51.332 -238.91 -57.914 -243.91 -63.102 C -258.7 -78.456 -269.65 -91.038 -277.66 -103.22 Z" fill-rule="evenodd" style="stroke-width: 1; fill: rgb(201, 155, 255);"></path>
    </g>
  </g>
</svg>
